<svg xmlns="http://www.w3.org/2000/svg" xmlns:xlink="http://www.w3.org/1999/xlink" width="500" zoomAndPan="magnify" viewBox="0 0 375 374.999991" height="500" preserveAspectRatio="xMidYMid meet" version="1.0"><defs><g/></defs><g fill="#004c9b" fill-opacity="1"><g transform="translate(47.797778, 189.05828)"><g/></g></g><g fill="#004c9b" fill-opacity="1"><g transform="translate(58.147046, 189.05828)"><g/></g></g><g fill="#004c9b" fill-opacity="1"><g transform="translate(68.496313, 189.05828)"><g/></g></g><g fill="#004c9b" fill-opacity="1"><g transform="translate(78.84558, 189.05828)"><g/></g></g><g fill="#004c9b" fill-opacity="1"><g transform="translate(89.194847, 189.05828)"><g/></g></g><g fill="#004c9b" fill-opacity="1"><g transform="translate(99.544115, 189.05828)"><g/></g></g><g fill="#004c9b" fill-opacity="1"><g transform="translate(109.893382, 189.05828)"><g/></g></g><g fill="#004c9b" fill-opacity="1"><g transform="translate(120.242646, 189.05828)"><g/></g></g><g fill="#004c9b" fill-opacity="1"><g transform="translate(130.591916, 189.05828)"><g/></g></g><g fill="#004c9b" fill-opacity="1"><g transform="translate(140.953698, 189.05828)"><g><path d="M 42.375 -35.3125 C 42.070312 -29.882812 41.921875 -24.019531 41.921875 -17.71875 C 41.921875 -11.382812 42.070312 -5.476562 42.375 0 C 39.613281 -0.125 37.4375 -0.1875 35.84375 -0.1875 C 34.332031 -0.1875 32.148438 -0.125 29.296875 0 L 27.421875 -9.515625 C 26.429688 -6.054688 24.878906 -3.5 22.765625 -1.84375 C 20.648438 -0.1875 18.191406 0.640625 15.390625 0.640625 C 12.804688 0.640625 10.566406 0.0703125 8.671875 -1.0625 C 6.773438 -2.207031 5.335938 -3.75 4.359375 -5.6875 C 3.390625 -7.632812 2.90625 -9.8125 2.90625 -12.21875 L 2.90625 -21.546875 C 2.90625 -27.273438 2.800781 -31.863281 2.59375 -35.3125 L 17.140625 -35.3125 C 16.878906 -28.976562 16.75 -22.707031 16.75 -16.5 C 16.75 -14.601562 17.210938 -13.09375 18.140625 -11.96875 C 19.066406 -10.84375 20.242188 -10.28125 21.671875 -10.28125 C 23.003906 -10.28125 24.175781 -10.875 25.1875 -12.0625 C 26.207031 -13.25 26.828125 -14.878906 27.046875 -16.953125 L 27.046875 -18.4375 C 27.128906 -21.800781 27.171875 -24.128906 27.171875 -25.421875 C 27.171875 -28.398438 27.082031 -31.695312 26.90625 -35.3125 Z M 42.375 -35.3125 "/></g></g></g><g fill="#004c9b" fill-opacity="1"><g transform="translate(144.195333, 213.258338)"><g><path d="M 25.171875 -6.140625 C 25.171875 -5.296875 25.269531 -4.703125 25.46875 -4.359375 C 25.664062 -4.015625 26.0625 -3.769531 26.65625 -3.625 L 26.5 -0.140625 C 25.71875 -0.0234375 25.035156 0.0546875 24.453125 0.109375 C 23.878906 0.160156 23.109375 0.1875 22.140625 0.1875 C 20.023438 0.1875 18.617188 -0.285156 17.921875 -1.234375 C 17.234375 -2.179688 16.890625 -3.394531 16.890625 -4.875 L 16.890625 -5.796875 C 16.179688 -3.773438 15.140625 -2.269531 13.765625 -1.28125 C 12.398438 -0.300781 10.660156 0.1875 8.546875 0.1875 C 6.078125 0.1875 4.21875 -0.300781 2.96875 -1.28125 C 1.726562 -2.269531 1.109375 -3.738281 1.109375 -5.6875 C 1.109375 -7.289062 1.632812 -8.546875 2.6875 -9.453125 C 3.75 -10.367188 5.390625 -11 7.609375 -11.34375 C 5.742188 -12.675781 3.875 -13.835938 2 -14.828125 C 3.476562 -16.703125 5.164062 -18.125 7.0625 -19.09375 C 8.957031 -20.0625 11.257812 -20.546875 13.96875 -20.546875 C 17.769531 -20.546875 20.585938 -19.726562 22.421875 -18.09375 C 24.253906 -16.457031 25.171875 -13.9375 25.171875 -10.53125 Z M 14.75 -14.046875 C 13.488281 -14.046875 12.378906 -13.835938 11.421875 -13.421875 C 10.460938 -13.003906 9.597656 -12.375 8.828125 -11.53125 C 10.304688 -11.707031 12.15625 -11.796875 14.375 -11.796875 C 15.289062 -11.796875 15.929688 -11.90625 16.296875 -12.125 C 16.671875 -12.34375 16.859375 -12.625 16.859375 -12.96875 C 16.859375 -13.269531 16.671875 -13.523438 16.296875 -13.734375 C 15.929688 -13.941406 15.414062 -14.046875 14.75 -14.046875 Z M 10.875 -5.84375 C 12.25 -5.84375 13.488281 -6.109375 14.59375 -6.640625 C 15.707031 -7.171875 16.472656 -7.863281 16.890625 -8.71875 L 16.890625 -9.6875 C 16.296875 -9.382812 15.640625 -9.15625 14.921875 -9 C 14.210938 -8.84375 13.351562 -8.691406 12.34375 -8.546875 L 11.015625 -8.3125 C 9.640625 -8.039062 8.953125 -7.570312 8.953125 -6.90625 C 8.953125 -6.195312 9.59375 -5.84375 10.875 -5.84375 Z M 10.875 -5.84375 "/></g></g></g><g fill="#004c9b" fill-opacity="1"><g transform="translate(170.103264, 213.258338)"><g><path d="M 10.0625 -14.71875 C 11.09375 -18.4375 13.664062 -20.296875 17.78125 -20.296875 C 18.5 -20.296875 19.191406 -20.242188 19.859375 -20.140625 L 18.671875 -11.859375 C 16.890625 -12.523438 15.4375 -12.859375 14.3125 -12.859375 C 12.90625 -12.859375 11.867188 -12.4375 11.203125 -11.59375 C 10.535156 -10.757812 10.203125 -9.644531 10.203125 -8.25 L 10.203125 -8.28125 L 10.171875 -5.84375 C 10.171875 -4.09375 10.21875 -2.144531 10.3125 0 L 1.484375 0 C 1.679688 -3.550781 1.78125 -6.90625 1.78125 -10.0625 C 1.78125 -13.207031 1.679688 -16.582031 1.484375 -20.1875 C 3.109375 -20.113281 4.351562 -20.078125 5.21875 -20.078125 C 6.125 -20.078125 7.367188 -20.113281 8.953125 -20.1875 Z M 10.0625 -14.71875 "/></g></g></g><g fill="#004c9b" fill-opacity="1"><g transform="translate(189.949917, 213.258338)"><g><path d="M 27.578125 -20.21875 L 18.40625 -11.859375 C 21.539062 -7.429688 24.460938 -3.476562 27.171875 0 L 17.375 0 L 15.484375 -3.03125 C 14.253906 -5.070312 13.441406 -6.40625 13.046875 -7.03125 L 9.984375 -4.21875 L 9.984375 0 L 1.484375 0 C 1.679688 -4.6875 1.78125 -9.429688 1.78125 -14.234375 C 1.78125 -19.066406 1.679688 -23.910156 1.484375 -28.765625 L 9.984375 -28.765625 L 9.984375 -13.09375 C 12.367188 -15.53125 14.625 -17.90625 16.75 -20.21875 Z M 27.578125 -20.21875 "/></g></g></g><g fill="#004c9b" fill-opacity="1"><g transform="translate(216.042645, 213.258338)"><g><path d="M 21.03125 -9.234375 L 8.984375 -9.234375 C 9.179688 -8.148438 9.664062 -7.269531 10.4375 -6.59375 C 11.21875 -5.914062 12.320312 -5.578125 13.75 -5.578125 C 14.789062 -5.578125 15.765625 -5.78125 16.671875 -6.1875 C 17.585938 -6.59375 18.316406 -7.164062 18.859375 -7.90625 C 20.503906 -7.09375 22.695312 -6.21875 25.4375 -5.28125 C 24.664062 -3.5625 23.273438 -2.1875 21.265625 -1.15625 C 19.265625 -0.132812 16.648438 0.375 13.421875 0.375 C 9.234375 0.375 6.132812 -0.59375 4.125 -2.53125 C 2.113281 -4.46875 1.109375 -7.015625 1.109375 -10.171875 C 1.109375 -13.242188 2.101562 -15.738281 4.09375 -17.65625 C 6.09375 -19.582031 9.203125 -20.546875 13.421875 -20.546875 C 15.929688 -20.546875 18.109375 -20.128906 19.953125 -19.296875 C 21.804688 -18.460938 23.222656 -17.296875 24.203125 -15.796875 C 25.191406 -14.304688 25.6875 -12.601562 25.6875 -10.6875 C 25.6875 -10.039062 25.664062 -9.554688 25.625 -9.234375 Z M 13.9375 -14.96875 C 12.707031 -14.96875 11.695312 -14.734375 10.90625 -14.265625 C 10.113281 -13.796875 9.554688 -13.15625 9.234375 -12.34375 L 17.96875 -12.34375 C 17.664062 -13.132812 17.179688 -13.769531 16.515625 -14.25 C 15.859375 -14.726562 15 -14.96875 13.9375 -14.96875 Z M 13.9375 -14.96875 "/></g></g></g><g fill="#004c9b" fill-opacity="1"><g transform="translate(241.359237, 213.258338)"><g><path d="M 18.21875 -13.5625 C 15.957031 -13.71875 13.890625 -13.832031 12.015625 -13.90625 L 11.984375 -9.984375 C 11.984375 -8.648438 12.269531 -7.609375 12.84375 -6.859375 C 13.425781 -6.109375 14.457031 -5.734375 15.9375 -5.734375 C 16.5 -5.734375 17.039062 -5.78125 17.5625 -5.875 C 17.457031 -4.96875 17.40625 -4.046875 17.40625 -3.109375 C 17.40625 -2.660156 17.429688 -1.648438 17.484375 -0.078125 C 16.398438 0.117188 15.488281 0.242188 14.75 0.296875 C 14.007812 0.347656 13.046875 0.375 11.859375 0.375 C 8.984375 0.375 6.945312 -0.320312 5.75 -1.71875 C 4.550781 -3.113281 3.953125 -5.054688 3.953125 -7.546875 L 4 -13.796875 C 2.832031 -13.742188 1.625 -13.664062 0.375 -13.5625 L 0.375 -20.109375 C 1.65625 -20.109375 2.738281 -20.515625 3.625 -21.328125 C 4.507812 -22.140625 5.039062 -23.113281 5.21875 -24.25 L 15.265625 -24.25 C 14.003906 -22.519531 12.613281 -21.140625 11.09375 -20.109375 L 18.21875 -20.109375 Z M 18.21875 -13.5625 "/></g></g></g><g fill="#004c9b" fill-opacity="1"><g transform="translate(258.840514, 213.258338)"><g><path d="M 17.640625 -20.546875 C 19.234375 -20.546875 20.671875 -20.085938 21.953125 -19.171875 C 23.234375 -18.265625 24.234375 -17.03125 24.953125 -15.46875 C 25.671875 -13.90625 26.03125 -12.1875 26.03125 -10.3125 C 26.03125 -8.46875 25.671875 -6.722656 24.953125 -5.078125 C 24.234375 -3.441406 23.226562 -2.125 21.9375 -1.125 C 20.644531 -0.125 19.171875 0.375 17.515625 0.375 C 15.597656 0.375 13.953125 -0.0234375 12.578125 -0.828125 C 11.210938 -1.628906 10.195312 -2.867188 9.53125 -4.546875 C 9.53125 -3.140625 9.582031 -0.882812 9.6875 2.21875 C 9.78125 5.226562 9.828125 7.347656 9.828125 8.578125 L 1.484375 8.578125 C 1.628906 3.992188 1.703125 -0.796875 1.703125 -5.796875 C 1.703125 -10.804688 1.628906 -15.601562 1.484375 -20.1875 L 8.578125 -20.1875 L 9.65625 -15.5625 C 10.34375 -17.289062 11.375 -18.550781 12.75 -19.34375 C 14.132812 -20.144531 15.765625 -20.546875 17.640625 -20.546875 Z M 13.671875 -6.28125 C 14.785156 -6.28125 15.71875 -6.628906 16.46875 -7.328125 C 17.21875 -8.035156 17.59375 -8.957031 17.59375 -10.09375 C 17.59375 -11.351562 17.25 -12.375 16.5625 -13.15625 C 15.875 -13.945312 14.9375 -14.34375 13.75 -14.34375 C 12.394531 -14.34375 11.375 -14.015625 10.6875 -13.359375 C 10 -12.710938 9.65625 -11.625 9.65625 -10.09375 C 9.65625 -9.226562 9.875 -8.503906 10.3125 -7.921875 C 10.757812 -7.347656 11.289062 -6.929688 11.90625 -6.671875 C 12.519531 -6.410156 13.109375 -6.28125 13.671875 -6.28125 Z M 13.671875 -6.28125 "/></g></g></g><g fill="#004c9b" fill-opacity="1"><g transform="translate(284.489729, 213.258338)"><g><path d="M 10.171875 -14.78125 C 10.140625 -13.300781 10.125 -11.035156 10.125 -7.984375 C 10.125 -4.316406 10.148438 -1.65625 10.203125 0 L 1.484375 0 L 1.515625 -4.171875 C 1.566406 -8.753906 1.59375 -12.289062 1.59375 -14.78125 C 1.59375 -17.15625 1.566406 -20.507812 1.515625 -24.84375 L 1.484375 -28.828125 L 10.203125 -28.828125 C 10.148438 -25.335938 10.125 -22.484375 10.125 -20.265625 C 10.125 -17.796875 10.140625 -15.96875 10.171875 -14.78125 Z M 10.171875 -14.78125 "/></g></g></g><g fill="#004c9b" fill-opacity="1"><g transform="translate(294.690067, 213.258338)"><g><path d="M 25.171875 -6.140625 C 25.171875 -5.296875 25.269531 -4.703125 25.46875 -4.359375 C 25.664062 -4.015625 26.0625 -3.769531 26.65625 -3.625 L 26.5 -0.140625 C 25.71875 -0.0234375 25.035156 0.0546875 24.453125 0.109375 C 23.878906 0.160156 23.109375 0.1875 22.140625 0.1875 C 20.023438 0.1875 18.617188 -0.285156 17.921875 -1.234375 C 17.234375 -2.179688 16.890625 -3.394531 16.890625 -4.875 L 16.890625 -5.796875 C 16.179688 -3.773438 15.140625 -2.269531 13.765625 -1.28125 C 12.398438 -0.300781 10.660156 0.1875 8.546875 0.1875 C 6.078125 0.1875 4.21875 -0.300781 2.96875 -1.28125 C 1.726562 -2.269531 1.109375 -3.738281 1.109375 -5.6875 C 1.109375 -7.289062 1.632812 -8.546875 2.6875 -9.453125 C 3.75 -10.367188 5.390625 -11 7.609375 -11.34375 C 5.742188 -12.675781 3.875 -13.835938 2 -14.828125 C 3.476562 -16.703125 5.164062 -18.125 7.0625 -19.09375 C 8.957031 -20.0625 11.257812 -20.546875 13.96875 -20.546875 C 17.769531 -20.546875 20.585938 -19.726562 22.421875 -18.09375 C 24.253906 -16.457031 25.171875 -13.9375 25.171875 -10.53125 Z M 14.75 -14.046875 C 13.488281 -14.046875 12.378906 -13.835938 11.421875 -13.421875 C 10.460938 -13.003906 9.597656 -12.375 8.828125 -11.53125 C 10.304688 -11.707031 12.15625 -11.796875 14.375 -11.796875 C 15.289062 -11.796875 15.929688 -11.90625 16.296875 -12.125 C 16.671875 -12.34375 16.859375 -12.625 16.859375 -12.96875 C 16.859375 -13.269531 16.671875 -13.523438 16.296875 -13.734375 C 15.929688 -13.941406 15.414062 -14.046875 14.75 -14.046875 Z M 10.875 -5.84375 C 12.25 -5.84375 13.488281 -6.109375 14.59375 -6.640625 C 15.707031 -7.171875 16.472656 -7.863281 16.890625 -8.71875 L 16.890625 -9.6875 C 16.296875 -9.382812 15.640625 -9.15625 14.921875 -9 C 14.210938 -8.84375 13.351562 -8.691406 12.34375 -8.546875 L 11.015625 -8.3125 C 9.640625 -8.039062 8.953125 -7.570312 8.953125 -6.90625 C 8.953125 -6.195312 9.59375 -5.84375 10.875 -5.84375 Z M 10.875 -5.84375 "/></g></g></g><g fill="#004c9b" fill-opacity="1"><g transform="translate(320.598001, 213.258338)"><g><path d="M 8.984375 -10.09375 C 9.035156 -8.832031 9.4375 -7.820312 10.1875 -7.0625 C 10.9375 -6.300781 12.050781 -5.921875 13.53125 -5.921875 C 14.34375 -5.921875 15.066406 -6.070312 15.703125 -6.375 C 16.347656 -6.6875 16.941406 -7.148438 17.484375 -7.765625 C 19.578125 -6.953125 22.03125 -6.25 24.84375 -5.65625 C 24.03125 -3.757812 22.65625 -2.28125 20.71875 -1.21875 C 18.78125 -0.15625 16.273438 0.375 13.203125 0.375 C 9.085938 0.375 6.039062 -0.582031 4.0625 -2.5 C 2.09375 -4.425781 1.109375 -6.957031 1.109375 -10.09375 C 1.109375 -13.21875 2.09375 -15.738281 4.0625 -17.65625 C 6.039062 -19.582031 9.085938 -20.546875 13.203125 -20.546875 C 16.273438 -20.546875 18.78125 -20.015625 20.71875 -18.953125 C 22.65625 -17.898438 24.03125 -16.425781 24.84375 -14.53125 C 22.644531 -14.0625 20.191406 -13.359375 17.484375 -12.421875 C 16.941406 -13.035156 16.347656 -13.492188 15.703125 -13.796875 C 15.066406 -14.109375 14.34375 -14.265625 13.53125 -14.265625 C 12.050781 -14.265625 10.9375 -13.882812 10.1875 -13.125 C 9.4375 -12.363281 9.035156 -11.351562 8.984375 -10.09375 Z M 8.984375 -10.09375 "/></g></g></g><g fill="#004c9b" fill-opacity="1"><g transform="translate(345.249334, 213.258338)"><g><path d="M 21.03125 -9.234375 L 8.984375 -9.234375 C 9.179688 -8.148438 9.664062 -7.269531 10.4375 -6.59375 C 11.21875 -5.914062 12.320312 -5.578125 13.75 -5.578125 C 14.789062 -5.578125 15.765625 -5.78125 16.671875 -6.1875 C 17.585938 -6.59375 18.316406 -7.164062 18.859375 -7.90625 C 20.503906 -7.09375 22.695312 -6.21875 25.4375 -5.28125 C 24.664062 -3.5625 23.273438 -2.1875 21.265625 -1.15625 C 19.265625 -0.132812 16.648438 0.375 13.421875 0.375 C 9.234375 0.375 6.132812 -0.59375 4.125 -2.53125 C 2.113281 -4.46875 1.109375 -7.015625 1.109375 -10.171875 C 1.109375 -13.242188 2.101562 -15.738281 4.09375 -17.65625 C 6.09375 -19.582031 9.203125 -20.546875 13.421875 -20.546875 C 15.929688 -20.546875 18.109375 -20.128906 19.953125 -19.296875 C 21.804688 -18.460938 23.222656 -17.296875 24.203125 -15.796875 C 25.191406 -14.304688 25.6875 -12.601562 25.6875 -10.6875 C 25.6875 -10.039062 25.664062 -9.554688 25.625 -9.234375 Z M 13.9375 -14.96875 C 12.707031 -14.96875 11.695312 -14.734375 10.90625 -14.265625 C 10.113281 -13.796875 9.554688 -13.15625 9.234375 -12.34375 L 17.96875 -12.34375 C 17.664062 -13.132812 17.179688 -13.769531 16.515625 -14.25 C 15.859375 -14.726562 15 -14.96875 13.9375 -14.96875 Z M 13.9375 -14.96875 "/></g></g></g><g fill="#004c9b" fill-opacity="1"><g transform="translate(41.359163, 213.271933)"><g/></g></g><g fill="#004c9b" fill-opacity="1"><g transform="translate(54.680689, 213.271933)"><g><path d="M 81.09375 -60.375 L 87.578125 0 L 66.03125 0 L 64.703125 -43.078125 L 56.390625 0 L 34.59375 0 L 26.109375 -42.75 L 24.875 0 L 3.328125 0 L 9.8125 -60.375 L 38.09375 -60.375 L 45.328125 -21.046875 L 51.65625 -60.375 Z M 81.09375 -60.375 "/></g></g></g><g fill="#004c9b" fill-opacity="1"><g transform="translate(8.945556, 214.019415)"><g><path d="M 45.5625 -33.921875 C 39.894531 -34.285156 34.71875 -34.5625 30.03125 -34.75 L 29.9375 -24.953125 C 29.9375 -21.628906 30.660156 -19.023438 32.109375 -17.140625 C 33.554688 -15.265625 36.128906 -14.328125 39.828125 -14.328125 C 41.242188 -14.328125 42.601562 -14.445312 43.90625 -14.6875 C 43.65625 -12.414062 43.53125 -10.109375 43.53125 -7.765625 C 43.53125 -6.648438 43.59375 -4.125 43.71875 -0.1875 C 41.007812 0.300781 38.726562 0.609375 36.875 0.734375 C 35.03125 0.859375 32.628906 0.921875 29.671875 0.921875 C 22.460938 0.921875 17.363281 -0.816406 14.375 -4.296875 C 11.382812 -7.773438 9.890625 -12.628906 9.890625 -18.859375 L 9.984375 -34.46875 C 7.085938 -34.34375 4.066406 -34.160156 0.921875 -33.921875 L 0.921875 -50.28125 C 4.128906 -50.28125 6.84375 -51.296875 9.0625 -53.328125 C 11.28125 -55.359375 12.601562 -57.789062 13.03125 -60.625 L 38.171875 -60.625 C 35.023438 -56.3125 31.539062 -52.863281 27.71875 -50.28125 L 45.5625 -50.28125 Z M 45.5625 -33.921875 "/></g></g></g></svg>