<svg  xmlns="http://www.w3.org/2000/svg" xmlns:xlink="http://www.w3.org/1999/xlink" width="1366" zoomAndPan="magnify" viewBox="0 0 1024.5 576" height="768" preserveAspectRatio="xMidYMid meet" version="1.0"><defs><g/></defs><g fill="#004c9b" fill-opacity="1"><g transform="translate(134.504071, 315.029533)"><g/></g></g><g fill="#004c9b" fill-opacity="1"><g transform="translate(162.469324, 315.029533)"><g/></g></g><g fill="#004c9b" fill-opacity="1"><g transform="translate(190.434577, 315.029533)"><g/></g></g><g fill="#004c9b" fill-opacity="1"><g transform="translate(218.39983, 315.029533)"><g/></g></g><g fill="#004c9b" fill-opacity="1"><g transform="translate(246.365083, 315.029533)"><g/></g></g><g fill="#004c9b" fill-opacity="1"><g transform="translate(274.330336, 315.029533)"><g/></g></g><g fill="#004c9b" fill-opacity="1"><g transform="translate(302.295589, 315.029533)"><g/></g></g><g fill="#004c9b" fill-opacity="1"><g transform="translate(330.260833, 315.029533)"><g/></g></g><g fill="#004c9b" fill-opacity="1"><g transform="translate(358.226095, 315.029533)"><g/></g></g><g fill="#004c9b" fill-opacity="1"><g transform="translate(386.225164, 315.029533)"><g><path d="M 114.484375 -95.4375 C 113.671875 -80.757812 113.265625 -64.910156 113.265625 -47.890625 C 113.265625 -30.765625 113.671875 -14.800781 114.484375 0 C 107.035156 -0.351562 101.15625 -0.53125 96.84375 -0.53125 C 92.757812 -0.53125 86.875 -0.351562 79.1875 0 L 74.109375 -25.6875 C 71.429688 -16.375 67.238281 -9.472656 61.53125 -4.984375 C 55.820312 -0.492188 49.179688 1.75 41.609375 1.75 C 34.609375 1.75 28.546875 0.207031 23.421875 -2.875 C 18.296875 -5.96875 14.421875 -10.132812 11.796875 -15.375 C 9.171875 -20.625 7.859375 -26.507812 7.859375 -33.03125 L 7.859375 -58.203125 C 7.859375 -73.703125 7.566406 -86.113281 6.984375 -95.4375 L 46.328125 -95.4375 C 45.617188 -78.3125 45.265625 -61.359375 45.265625 -44.578125 C 45.265625 -39.441406 46.515625 -35.359375 49.015625 -32.328125 C 51.523438 -29.304688 54.707031 -27.796875 58.5625 -27.796875 C 62.164062 -27.796875 65.335938 -29.394531 68.078125 -32.59375 C 70.816406 -35.800781 72.476562 -40.203125 73.0625 -45.796875 L 73.0625 -49.8125 C 73.300781 -58.90625 73.421875 -65.195312 73.421875 -68.6875 C 73.421875 -76.726562 73.1875 -85.644531 72.71875 -95.4375 Z M 114.484375 -95.4375 "/></g></g></g><g fill="#004c9b" fill-opacity="1"><g transform="translate(394.984541, 380.421641)"><g><path d="M 68.015625 -16.578125 C 68.015625 -14.316406 68.28125 -12.71875 68.8125 -11.78125 C 69.34375 -10.851562 70.410156 -10.1875 72.015625 -9.78125 L 71.609375 -0.40625 C 69.484375 -0.0703125 67.632812 0.160156 66.0625 0.296875 C 64.5 0.429688 62.421875 0.5 59.828125 0.5 C 54.097656 0.5 50.300781 -0.78125 48.4375 -3.34375 C 46.570312 -5.90625 45.640625 -9.1875 45.640625 -13.1875 L 45.640625 -15.6875 C 43.710938 -10.21875 40.898438 -6.148438 37.203125 -3.484375 C 33.503906 -0.828125 28.796875 0.5 23.078125 0.5 C 16.410156 0.5 11.394531 -0.828125 8.03125 -3.484375 C 4.675781 -6.148438 3 -10.113281 3 -15.375 C 3 -19.707031 4.425781 -23.101562 7.28125 -25.5625 C 10.144531 -28.03125 14.578125 -29.726562 20.578125 -30.65625 C 15.515625 -34.257812 10.453125 -37.390625 5.390625 -40.046875 C 9.390625 -45.109375 13.953125 -48.953125 19.078125 -51.578125 C 24.203125 -54.210938 30.425781 -55.53125 37.75 -55.53125 C 48.007812 -55.53125 55.617188 -53.316406 60.578125 -48.890625 C 65.535156 -44.460938 68.015625 -37.65625 68.015625 -28.46875 Z M 39.84375 -37.953125 C 36.445312 -37.953125 33.453125 -37.382812 30.859375 -36.25 C 28.265625 -35.125 25.9375 -33.425781 23.875 -31.15625 C 27.863281 -31.625 32.851562 -31.859375 38.84375 -31.859375 C 41.3125 -31.859375 43.046875 -32.15625 44.046875 -32.75 C 45.046875 -33.351562 45.546875 -34.125 45.546875 -35.0625 C 45.546875 -35.851562 45.046875 -36.53125 44.046875 -37.09375 C 43.046875 -37.664062 41.644531 -37.953125 39.84375 -37.953125 Z M 29.359375 -15.78125 C 33.085938 -15.78125 36.445312 -16.492188 39.4375 -17.921875 C 42.4375 -19.359375 44.503906 -21.242188 45.640625 -23.578125 L 45.640625 -26.171875 C 44.046875 -25.367188 42.28125 -24.75 40.34375 -24.3125 C 38.414062 -23.882812 36.085938 -23.472656 33.359375 -23.078125 L 29.765625 -22.46875 C 26.035156 -21.738281 24.171875 -20.472656 24.171875 -18.671875 C 24.171875 -16.742188 25.898438 -15.78125 29.359375 -15.78125 Z M 29.359375 -15.78125 "/></g></g></g><g fill="#004c9b" fill-opacity="1"><g transform="translate(464.991608, 380.421641)"><g><path d="M 27.171875 -39.75 C 29.960938 -49.800781 36.921875 -54.828125 48.046875 -54.828125 C 49.972656 -54.828125 51.835938 -54.695312 53.640625 -54.4375 L 50.4375 -32.0625 C 45.644531 -33.851562 41.71875 -34.75 38.65625 -34.75 C 34.851562 -34.75 32.050781 -33.617188 30.25 -31.359375 C 28.457031 -29.097656 27.5625 -26.066406 27.5625 -22.265625 L 27.5625 -22.375 L 27.46875 -15.78125 C 27.46875 -11.050781 27.597656 -5.789062 27.859375 0 L 4 0 C 4.53125 -9.582031 4.796875 -18.640625 4.796875 -27.171875 C 4.796875 -35.691406 4.53125 -44.8125 4 -54.53125 C 8.394531 -54.332031 11.753906 -54.234375 14.078125 -54.234375 C 16.546875 -54.234375 19.910156 -54.332031 24.171875 -54.53125 Z M 27.171875 -39.75 "/></g></g></g><g fill="#004c9b" fill-opacity="1"><g transform="translate(518.620203, 380.421641)"><g><path d="M 74.5 -54.625 L 49.734375 -32.0625 C 58.191406 -20.070312 66.082031 -9.382812 73.40625 0 L 46.9375 0 L 41.84375 -8.1875 C 38.519531 -13.71875 36.320312 -17.3125 35.25 -18.96875 L 26.96875 -11.390625 L 26.96875 0 L 4 0 C 4.53125 -12.644531 4.796875 -25.460938 4.796875 -38.453125 C 4.796875 -51.503906 4.53125 -64.585938 4 -77.703125 L 26.96875 -77.703125 L 26.96875 -35.359375 C 33.425781 -41.953125 39.519531 -48.375 45.25 -54.625 Z M 74.5 -54.625 "/></g></g></g><g fill="#004c9b" fill-opacity="1"><g transform="translate(589.126619, 380.421641)"><g><path d="M 56.828125 -24.96875 L 24.265625 -24.96875 C 24.796875 -22.039062 26.109375 -19.660156 28.203125 -17.828125 C 30.304688 -15.992188 33.289062 -15.078125 37.15625 -15.078125 C 39.945312 -15.078125 42.570312 -15.625 45.03125 -16.71875 C 47.5 -17.820312 49.46875 -19.375 50.9375 -21.375 C 55.394531 -19.175781 61.320312 -16.8125 68.71875 -14.28125 C 66.65625 -9.625 62.910156 -5.910156 57.484375 -3.140625 C 52.054688 -0.378906 44.976562 1 36.25 1 C 24.9375 1 16.566406 -1.613281 11.140625 -6.84375 C 5.710938 -12.070312 3 -18.945312 3 -27.46875 C 3 -35.789062 5.691406 -42.546875 11.078125 -47.734375 C 16.472656 -52.929688 24.863281 -55.53125 36.25 -55.53125 C 43.039062 -55.53125 48.929688 -54.394531 53.921875 -52.125 C 58.921875 -49.863281 62.75 -46.71875 65.40625 -42.6875 C 68.070312 -38.664062 69.40625 -34.054688 69.40625 -28.859375 C 69.40625 -27.128906 69.34375 -25.832031 69.21875 -24.96875 Z M 37.65625 -40.453125 C 34.320312 -40.453125 31.585938 -39.816406 29.453125 -38.546875 C 27.328125 -37.285156 25.832031 -35.554688 24.96875 -33.359375 L 48.546875 -33.359375 C 47.742188 -35.484375 46.441406 -37.195312 44.640625 -38.5 C 42.847656 -39.800781 40.519531 -40.453125 37.65625 -40.453125 Z M 37.65625 -40.453125 "/></g></g></g><g fill="#004c9b" fill-opacity="1"><g transform="translate(657.5358, 380.421641)"><g><path d="M 49.234375 -36.65625 C 43.109375 -37.050781 37.515625 -37.347656 32.453125 -37.546875 L 32.359375 -26.96875 C 32.359375 -23.375 33.140625 -20.5625 34.703125 -18.53125 C 36.265625 -16.5 39.046875 -15.484375 43.046875 -15.484375 C 44.578125 -15.484375 46.039062 -15.613281 47.4375 -15.875 C 47.175781 -13.414062 47.046875 -10.921875 47.046875 -8.390625 C 47.046875 -7.191406 47.109375 -4.460938 47.234375 -0.203125 C 44.304688 0.328125 41.84375 0.660156 39.84375 0.796875 C 37.851562 0.929688 35.257812 1 32.0625 1 C 24.269531 1 18.757812 -0.878906 15.53125 -4.640625 C 12.300781 -8.398438 10.6875 -13.644531 10.6875 -20.375 L 10.78125 -37.25 C 7.65625 -37.113281 4.394531 -36.914062 1 -36.65625 L 1 -54.328125 C 4.457031 -54.328125 7.382812 -55.425781 9.78125 -57.625 C 12.1875 -59.820312 13.617188 -62.453125 14.078125 -65.515625 L 41.25 -65.515625 C 37.851562 -60.859375 34.09375 -57.128906 29.96875 -54.328125 L 49.234375 -54.328125 Z M 49.234375 -36.65625 "/></g></g></g><g fill="#004c9b" fill-opacity="1"><g transform="translate(704.772799, 380.421641)"><g><path d="M 47.640625 -55.53125 C 51.960938 -55.53125 55.851562 -54.296875 59.3125 -51.828125 C 62.78125 -49.367188 65.476562 -46.023438 67.40625 -41.796875 C 69.34375 -37.566406 70.3125 -32.921875 70.3125 -27.859375 C 70.3125 -22.867188 69.34375 -18.160156 67.40625 -13.734375 C 65.476562 -9.304688 62.765625 -5.742188 59.265625 -3.046875 C 55.773438 -0.347656 51.800781 1 47.34375 1 C 42.144531 1 37.695312 -0.0820312 34 -2.25 C 30.3125 -4.414062 27.566406 -7.757812 25.765625 -12.28125 C 25.765625 -8.488281 25.898438 -2.394531 26.171875 6 C 26.429688 14.113281 26.5625 19.835938 26.5625 23.171875 L 4 23.171875 C 4.394531 10.785156 4.59375 -2.164062 4.59375 -15.6875 C 4.59375 -29.195312 4.394531 -42.144531 4 -54.53125 L 23.171875 -54.53125 L 26.0625 -42.046875 C 27.925781 -46.703125 30.722656 -50.113281 34.453125 -52.28125 C 38.179688 -54.445312 42.578125 -55.53125 47.640625 -55.53125 Z M 36.953125 -16.984375 C 39.953125 -16.984375 42.46875 -17.929688 44.5 -19.828125 C 46.53125 -21.722656 47.546875 -24.203125 47.546875 -27.265625 C 47.546875 -30.660156 46.613281 -33.421875 44.75 -35.546875 C 42.882812 -37.679688 40.351562 -38.75 37.15625 -38.75 C 33.488281 -38.75 30.722656 -37.863281 28.859375 -36.09375 C 26.992188 -34.332031 26.0625 -31.390625 26.0625 -27.265625 C 26.0625 -24.929688 26.660156 -22.984375 27.859375 -21.421875 C 29.054688 -19.859375 30.488281 -18.726562 32.15625 -18.03125 C 33.820312 -17.332031 35.421875 -16.984375 36.953125 -16.984375 Z M 36.953125 -16.984375 "/></g></g></g><g fill="#004c9b" fill-opacity="1"><g transform="translate(774.080777, 380.421641)"><g><path d="M 27.46875 -39.953125 C 27.394531 -35.953125 27.359375 -29.828125 27.359375 -21.578125 C 27.359375 -11.648438 27.425781 -4.457031 27.5625 0 L 4 0 L 4.09375 -11.28125 C 4.226562 -23.664062 4.296875 -33.222656 4.296875 -39.953125 C 4.296875 -46.335938 4.226562 -55.390625 4.09375 -67.109375 L 4 -77.90625 L 27.5625 -77.90625 C 27.425781 -68.445312 27.359375 -60.722656 27.359375 -54.734375 C 27.359375 -48.078125 27.394531 -43.148438 27.46875 -39.953125 Z M 27.46875 -39.953125 "/></g></g></g><g fill="#004c9b" fill-opacity="1"><g transform="translate(801.643601, 380.421641)"><g><path d="M 68.015625 -16.578125 C 68.015625 -14.316406 68.28125 -12.71875 68.8125 -11.78125 C 69.34375 -10.851562 70.410156 -10.1875 72.015625 -9.78125 L 71.609375 -0.40625 C 69.484375 -0.0703125 67.632812 0.160156 66.0625 0.296875 C 64.5 0.429688 62.421875 0.5 59.828125 0.5 C 54.097656 0.5 50.300781 -0.78125 48.4375 -3.34375 C 46.570312 -5.90625 45.640625 -9.1875 45.640625 -13.1875 L 45.640625 -15.6875 C 43.710938 -10.21875 40.898438 -6.148438 37.203125 -3.484375 C 33.503906 -0.828125 28.796875 0.5 23.078125 0.5 C 16.410156 0.5 11.394531 -0.828125 8.03125 -3.484375 C 4.675781 -6.148438 3 -10.113281 3 -15.375 C 3 -19.707031 4.425781 -23.101562 7.28125 -25.5625 C 10.144531 -28.03125 14.578125 -29.726562 20.578125 -30.65625 C 15.515625 -34.257812 10.453125 -37.390625 5.390625 -40.046875 C 9.390625 -45.109375 13.953125 -48.953125 19.078125 -51.578125 C 24.203125 -54.210938 30.425781 -55.53125 37.75 -55.53125 C 48.007812 -55.53125 55.617188 -53.316406 60.578125 -48.890625 C 65.535156 -44.460938 68.015625 -37.65625 68.015625 -28.46875 Z M 39.84375 -37.953125 C 36.445312 -37.953125 33.453125 -37.382812 30.859375 -36.25 C 28.265625 -35.125 25.9375 -33.425781 23.875 -31.15625 C 27.863281 -31.625 32.851562 -31.859375 38.84375 -31.859375 C 41.3125 -31.859375 43.046875 -32.15625 44.046875 -32.75 C 45.046875 -33.351562 45.546875 -34.125 45.546875 -35.0625 C 45.546875 -35.851562 45.046875 -36.53125 44.046875 -37.09375 C 43.046875 -37.664062 41.644531 -37.953125 39.84375 -37.953125 Z M 29.359375 -15.78125 C 33.085938 -15.78125 36.445312 -16.492188 39.4375 -17.921875 C 42.4375 -19.359375 44.503906 -21.242188 45.640625 -23.578125 L 45.640625 -26.171875 C 44.046875 -25.367188 42.28125 -24.75 40.34375 -24.3125 C 38.414062 -23.882812 36.085938 -23.472656 33.359375 -23.078125 L 29.765625 -22.46875 C 26.035156 -21.738281 24.171875 -20.472656 24.171875 -18.671875 C 24.171875 -16.742188 25.898438 -15.78125 29.359375 -15.78125 Z M 29.359375 -15.78125 "/></g></g></g><g fill="#004c9b" fill-opacity="1"><g transform="translate(871.650677, 380.421641)"><g><path d="M 24.265625 -27.265625 C 24.398438 -23.867188 25.484375 -21.140625 27.515625 -19.078125 C 29.546875 -17.015625 32.554688 -15.984375 36.546875 -15.984375 C 38.742188 -15.984375 40.707031 -16.398438 42.4375 -17.234375 C 44.175781 -18.066406 45.773438 -19.3125 47.234375 -20.96875 C 52.898438 -18.769531 59.523438 -16.875 67.109375 -15.28125 C 64.910156 -10.15625 61.195312 -6.160156 55.96875 -3.296875 C 50.75 -0.429688 43.976562 1 35.65625 1 C 24.53125 1 16.304688 -1.59375 10.984375 -6.78125 C 5.660156 -11.976562 3 -18.804688 3 -27.265625 C 3 -35.722656 5.660156 -42.546875 10.984375 -47.734375 C 16.304688 -52.929688 24.53125 -55.53125 35.65625 -55.53125 C 43.976562 -55.53125 50.75 -54.097656 55.96875 -51.234375 C 61.195312 -48.367188 64.910156 -44.375 67.109375 -39.25 C 61.191406 -37.988281 54.566406 -36.09375 47.234375 -33.5625 C 45.773438 -35.226562 44.175781 -36.472656 42.4375 -37.296875 C 40.707031 -38.128906 38.742188 -38.546875 36.546875 -38.546875 C 32.554688 -38.546875 29.546875 -37.515625 27.515625 -35.453125 C 25.484375 -33.390625 24.398438 -30.660156 24.265625 -27.265625 Z M 24.265625 -27.265625 "/></g></g></g><g fill="#004c9b" fill-opacity="1"><g transform="translate(938.262229, 380.421641)"><g><path d="M 56.828125 -24.96875 L 24.265625 -24.96875 C 24.796875 -22.039062 26.109375 -19.660156 28.203125 -17.828125 C 30.304688 -15.992188 33.289062 -15.078125 37.15625 -15.078125 C 39.945312 -15.078125 42.570312 -15.625 45.03125 -16.71875 C 47.5 -17.820312 49.46875 -19.375 50.9375 -21.375 C 55.394531 -19.175781 61.320312 -16.8125 68.71875 -14.28125 C 66.65625 -9.625 62.910156 -5.910156 57.484375 -3.140625 C 52.054688 -0.378906 44.976562 1 36.25 1 C 24.9375 1 16.566406 -1.613281 11.140625 -6.84375 C 5.710938 -12.070312 3 -18.945312 3 -27.46875 C 3 -35.789062 5.691406 -42.546875 11.078125 -47.734375 C 16.472656 -52.929688 24.863281 -55.53125 36.25 -55.53125 C 43.039062 -55.53125 48.929688 -54.394531 53.921875 -52.125 C 58.921875 -49.863281 62.75 -46.71875 65.40625 -42.6875 C 68.070312 -38.664062 69.40625 -34.054688 69.40625 -28.859375 C 69.40625 -27.128906 69.34375 -25.832031 69.21875 -24.96875 Z M 37.65625 -40.453125 C 34.320312 -40.453125 31.585938 -39.816406 29.453125 -38.546875 C 27.328125 -37.285156 25.832031 -35.554688 24.96875 -33.359375 L 48.546875 -33.359375 C 47.742188 -35.484375 46.441406 -37.195312 44.640625 -38.5 C 42.847656 -39.800781 40.519531 -40.453125 37.65625 -40.453125 Z M 37.65625 -40.453125 "/></g></g></g><g fill="#004c9b" fill-opacity="1"><g transform="translate(117.105982, 380.458391)"><g/></g></g><g fill="#004c9b" fill-opacity="1"><g transform="translate(153.102719, 380.458391)"><g><path d="M 219.140625 -163.1875 L 236.671875 0 L 178.46875 0 L 174.875 -116.421875 L 152.390625 0 L 93.5 0 L 70.578125 -115.53125 L 67.203125 0 L 8.984375 0 L 26.515625 -163.1875 L 102.9375 -163.1875 L 122.5 -56.859375 L 139.578125 -163.1875 Z M 219.140625 -163.1875 "/></g></g></g><g fill="#004c9b" fill-opacity="1"><g transform="translate(29.519616, 382.478176)"><g><path d="M 123.109375 -91.640625 C 107.796875 -92.640625 93.8125 -93.390625 81.15625 -93.890625 L 80.90625 -67.421875 C 80.90625 -58.429688 82.859375 -51.394531 86.765625 -46.3125 C 90.679688 -41.238281 97.632812 -38.703125 107.625 -38.703125 C 111.457031 -38.703125 115.117188 -39.035156 118.609375 -39.703125 C 117.953125 -33.546875 117.625 -27.300781 117.625 -20.96875 C 117.625 -17.976562 117.785156 -11.15625 118.109375 -0.5 C 110.785156 0.832031 104.625 1.664062 99.625 2 C 94.632812 2.332031 88.144531 2.5 80.15625 2.5 C 60.675781 2.5 46.898438 -2.203125 38.828125 -11.609375 C 30.753906 -21.015625 26.71875 -34.125 26.71875 -50.9375 L 26.96875 -93.140625 C 19.144531 -92.804688 10.988281 -92.304688 2.5 -91.640625 L 2.5 -135.84375 C 11.15625 -135.84375 18.476562 -138.585938 24.46875 -144.078125 C 30.46875 -149.578125 34.046875 -156.15625 35.203125 -163.8125 L 103.140625 -163.8125 C 94.640625 -152.15625 85.234375 -142.832031 74.921875 -135.84375 L 123.109375 -135.84375 Z M 123.109375 -91.640625 "/></g></g></g></svg>
